<svg width="209" height="581" viewBox="0 0 209 581" fill="none" xmlns="http://www.w3.org/2000/svg">
<path d="M99.953 0C114.308 1.5765 116.317 11.841 106.223 21.2325C137.826 27.8617 155.497 40.6665 160.491 74.241C167.943 74.172 180.027 76.1528 172.335 87.4995C169.805 91.233 163.322 90.7335 158.973 90.6997L158.955 116.433C151.877 119.057 143.095 121.346 135.72 123.455L135.746 143.543L158.747 150.207C158.952 154.678 158.718 160 158.633 164.539C168.341 165.037 181.607 164.721 191.571 164.74L191.721 206.114C194.558 206.212 197.014 206.091 199.6 207.298C201.629 209.047 202.112 210.8 202.501 213.436C204.737 228.601 188.829 228.782 180.507 240.298C177.244 244.893 175.412 250.349 175.244 255.982C174.929 265.755 177.346 287.908 178.31 298.348C181.073 327.254 184.029 356.137 187.177 385.004L199.86 505.469C202.358 528.779 204.664 553.424 208.11 576.517C192.11 572.204 182.02 575.032 166.973 580.012C163.5 570.029 161.578 565.177 156.033 556.237C136.971 532.057 112.725 527.917 84.2156 536.594C70.1301 503.137 38.3067 490.537 4.13582 499.619C6.40813 487.439 7.68567 469.094 8.95423 456.224L16.4808 379.409L23.8386 306.506C25.4433 290.68 28.6938 267.423 27.432 252.319C26.5768 242.089 13.2318 231.33 4.96852 227.224C2.4599 225.511 0.3804 222.07 0.199606 219.148C-0.452304 208.607 -0.071973 206.545 10.2768 206.209C10.3601 192.388 10.3661 178.566 10.2933 164.745C20.9691 164.549 32.0089 164.638 42.7147 164.589L42.6945 90.6255C38.9083 90.7027 32.3787 91.2232 30.1544 88.0185C21.9872 76.2532 34.3247 73.9672 42.1709 74.1315C45.2781 39.963 66.0754 27.9607 96.6146 20.7855C85.7887 14.1525 88.2058 3.1755 99.953 0ZM107.484 164.521L122.699 164.653C122.76 149.986 122.774 135.284 122.824 120.62C122.877 105.271 118.058 89.5995 99.8577 90.0308C99.0407 90.0465 98.2245 90.084 97.4098 90.1425C91.3228 91.9222 87.2216 94.3642 84.1106 100.067C77.9441 111.37 80.6537 149.953 80.7468 164.374C89.6582 164.574 98.5719 164.623 107.484 164.521ZM88.1458 362.834L108.234 362.917L115.176 363.007C115.246 354.712 115.885 344.977 115.377 336.847C114.346 320.309 121.461 297.046 96.8389 299.225C92.5471 301.865 89.8262 304.288 89.0205 309.614C86.5719 325.799 89.3086 346.807 88.1458 362.834ZM87.8135 206.199C91.3919 206.23 113.617 206.917 115.093 205.566C115.119 195.124 115.356 183.838 114.963 173.467C105.898 173.417 96.8337 173.417 87.7692 173.467L87.8135 206.199ZM52.6644 206.212L78.7663 206.287L78.8571 173.453C70.1227 173.322 61.3875 173.341 52.6539 173.509L52.6644 206.212ZM158.64 173.488C158.614 184.18 158.774 195.568 158.53 206.203L183.232 206.266C183.32 195.575 183.621 184.108 183.247 173.481L158.64 173.488ZM123.778 206.184C127.905 206.244 147.206 206.769 149.765 205.888L149.89 173.426C141.176 173.369 132.461 173.389 123.748 173.486L123.778 206.184ZM18.7561 173.46L18.7569 206.158C22.9647 206.236 41.2271 206.838 43.8978 205.833C44.0883 195.02 44.1453 184.205 44.071 173.391C35.8213 173.439 26.9549 173.653 18.7561 173.46Z" fill="white"/>
</svg>
