<svg width="324" height="174" viewBox="0 0 324 174" fill="none" xmlns="http://www.w3.org/2000/svg">
<path d="M312.966 3.54076C316.297 2.26876 319.673 1.0875 323.071 0C323.573 17.0408 318.202 164.006 314.399 173.582C309.433 174.168 290.768 168.549 285.187 166.674C267.542 162.025 243.844 156.028 226.92 150.467C223.739 150.253 184.985 139.194 180.36 137.896C177.511 131.346 201.444 54.0345 201.096 38.949C201.003 34.9118 201.972 35.4518 198.566 32.712C212.404 29.3955 227.468 24.7207 241.248 22.086C247.272 19.932 259.418 17.2358 266.109 15.5168C281.706 11.4458 297.325 7.45351 312.966 3.54076Z" fill="#FFFEFD"/>
<path d="M198.566 32.712C212.404 29.3955 227.468 24.7207 241.248 22.0859L241.721 22.1332C243.927 22.3417 245.322 22.2809 247.535 22.1872C247.828 25.4197 246.545 28.2599 246.267 31.7984C244.272 56.3557 239.515 80.6107 232.096 104.104C230.288 109.891 218.623 144.483 218.773 146.736C221.999 147.951 223.326 148.438 226.747 149.143L226.92 150.467C223.739 150.253 184.985 139.194 180.36 137.896C177.511 131.346 201.444 54.0344 201.096 38.9489C201.003 34.9117 201.972 35.4517 198.566 32.712Z" fill="#FFFEFD"/>
<path d="M128.077 50.6423C150.744 44.3048 175.614 38.5275 198.566 32.712C201.972 35.4518 201.003 34.9118 201.096 38.949C201.444 54.0345 177.511 131.346 180.361 137.897C158.567 131.18 134.075 125.539 111.566 118.883C101.144 116.84 71.3844 107.534 60.2382 104.152C44.7972 99.4665 13.3578 91.5773 0 85.7475C36.6157 73.053 89.4961 60.3098 128.077 50.6423Z" fill="#FFFEFD"/>
<path d="M0 85.7475C36.6157 73.053 89.4961 60.3097 128.077 50.6422C130.331 50.7217 131.14 50.742 133.331 51.1942C137.053 57.57 122.464 89.9827 121.618 98.7592C121.128 103.843 120.989 115.495 118.031 118.617C115.298 118.972 113.591 118.486 111.566 118.883C101.144 116.84 71.3845 107.534 60.2382 104.152C44.7972 99.4665 13.3578 91.5772 0 85.7475Z" fill="#FFFEFD"/>
</svg>
